<?xml version="1.0" encoding="UTF-8" standalone="no"?> <!-- Created with Vectornator for iOS (http://vectornator.io/) --><!DOCTYPE svg PUBLIC "-//W3C//DTD SVG 1.1//EN" "http://www.w3.org/Graphics/SVG/1.1/DTD/svg11.dtd">
<svg height="100%" style="fill-rule:nonzero;clip-rule:evenodd;stroke-linecap:round;stroke-linejoin:round;" xmlns:xlink="http://www.w3.org/1999/xlink" xmlns="http://www.w3.org/2000/svg" xml:space="preserve" width="100%" xmlns:vectornator="http://vectornator.io" version="1.1" viewBox="0 0 1920 1080">
<metadata>
<vectornator:setting key="DimensionsVisible" value="1"/>
<vectornator:setting key="PencilOnly" value="1"/>
<vectornator:setting key="SnapToPoints" value="0"/>
<vectornator:setting key="OutlineMode" value="0"/>
<vectornator:setting key="CMYKEnabledKey" value="0"/>
<vectornator:setting key="RulersVisible" value="1"/>
<vectornator:setting key="SnapToEdges" value="0"/>
<vectornator:setting key="GuidesVisible" value="1"/>
<vectornator:setting key="DisplayWhiteBackground" value="0"/>
<vectornator:setting key="doHistoryDisabled" value="0"/>
<vectornator:setting key="SnapToGuides" value="1"/>
<vectornator:setting key="TimeLapseWatermarkDisabled" value="0"/>
<vectornator:setting key="Units" value="Pixels"/>
<vectornator:setting key="DynamicGuides" value="0"/>
<vectornator:setting key="IsolateActiveLayer" value="0"/>
<vectornator:setting key="SnapToGrid" value="0"/>
</metadata>
<defs/>
<g id="layer" vectornator:layerName="layer">
<path vectornator:shadowColor="#7a7a7a" vectornator:shadowOpacity="1" vectornator:shadowRadius="0" d="M488.254+342.141L597.895+593.992L597.895+339.809C597.895+323.291+600.231+310.902+604.904+302.643C609.576+294.384+615.881+290.254+623.817+290.254C632.01+290.254+638.475+294.384+643.211+302.643C647.948+310.902+650.316+323.291+650.316+339.809L650.316+675.902C650.316+713.408+640.075+732.16+619.593+732.16C614.473+732.16+609.864+731.043+605.768+728.808C601.672+726.573+597.831+723.027+594.247+718.169C590.663+713.31+587.334+707.626+584.262+701.116C581.19+694.606+578.118+687.95+575.045+681.149L468.092+432.212L468.092+682.606C468.092+698.93+465.596+711.27+460.604+719.626C455.611+727.982+449.211+732.16+441.402+732.16C433.337+732.16+426.873+727.934+422.008+719.48C417.144+711.027+414.712+698.736+414.712+682.606L414.712+352.926C414.712+338.934+415.736+327.954+417.784+319.987C420.216+311.242+424.248+304.1+429.881+298.562C435.513+293.024+441.594+290.254+448.122+290.254C453.243+290.254+457.627+291.518+461.276+294.044C464.924+296.57+468.124+299.971+470.876+304.246C473.629+308.521+476.445+314.06+479.325+320.861C482.205+327.663+485.182+334.756+488.254+342.141Z" vectornator:shadowOffset="14" fill="#4bbe02" opacity="1" vectornator:shadowAngle="0"/>
<path vectornator:shadowColor="#7a7a7a" vectornator:shadowOpacity="1" vectornator:shadowRadius="0" d="M712.719+350.594L712.719+671.844C712.719+690.499+715.435+703.988+720.875+712.344C726.315+720.7+735.239+724.875+747.656+724.875L795.781+724.875L795.781+656.094L769.75+656.094L769.75+534.531L888.031+534.531C896.864+534.531+903.401+531.465+907.625+525.344C911.849+519.222+913.969+511.31+913.969+501.594C913.969+491.877+911.82+484.052+907.531+478.125C903.243+472.198+896.736+469.25+888.031+469.25L769.75+469.25L769.75+364.312L712.719+350.594Z" vectornator:shadowOffset="14" fill="#ffffff" opacity="1" vectornator:shadowAngle="0"/>
<path vectornator:shadowColor="#7a7a7a" vectornator:shadowOpacity="1" vectornator:shadowRadius="0" d="M712.721+353.575C712.721+341.138+713.937+330.985+716.369+323.114C718.802+315.244+722.61+309.511+727.794+305.916C732.979+302.321+739.603+300.523+747.668+300.523L898.209+300.523C907.298+300.523+914.05+303.584+918.467+309.706C922.883+315.827+925.091+323.843+925.091+333.754C925.091+343.859+922.883+351.972+918.467+358.094C914.05+364.215+907.298+367.276+898.209+367.276L769.75+367.276" vectornator:shadowOffset="14" fill="#ffffff" opacity="1" vectornator:shadowAngle="0"/>
<path vectornator:shadowColor="#7a7a7a" vectornator:shadowOpacity="1" vectornator:shadowRadius="0" d="M771.51+353.575C771.51+341.138+772.726+330.985+775.158+323.114C777.591+315.244+781.399+309.511+786.583+305.916C791.768+302.321+798.392+300.523+806.457+300.523L956.998+300.523C966.087+300.523+972.839+303.584+977.256+309.706C981.672+315.827+983.88+323.843+983.88+333.754C983.88+343.859+981.672+351.972+977.256+358.094C972.839+364.215+966.087+367.276+956.998+367.276L828.539+367.276" vectornator:shadowOffset="14" fill="#ffffff" opacity="1" vectornator:shadowAngle="0"/>
<path vectornator:shadowColor="#7a7a7a" vectornator:shadowOpacity="1" vectornator:shadowRadius="0" d="M1255.04+365.144L1192.83+365.144C1183.1+365.144+1175.87+361.889+1171.13+355.379C1166.39+348.869+1164.03+340.27+1164.03+329.582C1164.03+318.505+1166.49+309.76+1171.42+303.347C1176.35+296.935+1183.48+293.728+1192.83+293.728L1253.83+293.728" vectornator:shadowOffset="14" fill="#ffffff" opacity="1" vectornator:shadowAngle="0"/>
<path vectornator:shadowColor="#7a7a7a" vectornator:shadowOpacity="1" vectornator:shadowRadius="0" d="M1314+365.144L1251.78+365.144C1242.05+365.144+1234.82+361.889+1230.09+355.379C1225.35+348.869+1222.98+340.27+1222.98+329.582C1222.98+318.505+1225.44+309.76+1230.37+303.347C1235.3+296.935+1242.44+293.728+1251.78+293.728L1312.79+293.728" vectornator:shadowOffset="14" fill="#ffffff" opacity="1" vectornator:shadowAngle="0"/>
<path vectornator:shadowColor="#7a7a7a" vectornator:shadowOpacity="1" vectornator:shadowRadius="0" d="M1310.58+293.898L1430.84+293.898C1440.69+293.898+1448.02+297.202+1452.82+303.809C1457.62+310.416+1460.02+319.064+1460.02+329.752C1460.02+340.44+1457.59+349.039+1452.73+355.549C1447.86+362.059+1440.56+365.314+1430.84+365.314L1368.62+365.314L1368.62+675.756C1368.62+693.635+1366+706.898+1360.75+715.545C1355.5+724.193+1348.72+728.517+1340.4+728.517C1331.95+728.517+1325.07+724.144+1319.75+715.399C1314.44+706.655+1311.79+693.44+1311.79+675.756L1311.79+365.314" vectornator:shadowOffset="14" fill="#ffffff" opacity="1" vectornator:shadowAngle="0"/>
<path vectornator:shadowColor="#7a7a7a" vectornator:shadowOpacity="1" vectornator:shadowRadius="0" d="M751.796+656.188L824.745+656.188C833.706+656.188+840.458+659.345+845.003+665.661C849.547+671.977+851.819+680.382+851.819+690.875C851.819+700.981+849.547+709.191+845.003+715.507C840.458+721.822+833.706+724.98+824.745+724.98L753.413+724.98" vectornator:shadowOffset="14" fill="#ffffff" opacity="1" vectornator:shadowAngle="0"/>
</g>
<g id="layer_2" vectornator:layerName="layer">
<path stroke="#ffffff" vectornator:shadowColor="#7a7a7a" vectornator:shadowOffset="14" stroke-width="11" fill="#ffffff" stroke-linecap="round" vectornator:shadowAngle="0" stroke-linejoin="miter" opacity="1" vectornator:shadowRadius="0" d="M1096.92+556.133C1119.07+560.933+1118.27+587.934+1095.14+616.441C1072.02+644.948+1035.32+664.167+1013.17+659.367C991.029+654.567+991.826+627.566+1014.95+599.059C1038.08+570.551+1074.78+551.333+1096.92+556.133Z" vectornator:shadowOpacity="1"/>
<path stroke="#ffffff" vectornator:shadowColor="#7a7a7a" vectornator:shadowOffset="14" stroke-width="11" fill="#8700b3" stroke-linecap="round" vectornator:shadowAngle="0" stroke-linejoin="miter" opacity="1" vectornator:shadowRadius="0" d="M1114.57+522.835C1098.28+522.558+1081.03+524.84+1063.61+529.931C993.94+550.296+948.082+608.298+961.186+659.472C974.291+710.646+1041.4+735.588+1111.07+715.223C1180.74+694.858+1226.6+636.9+1213.5+585.726C1203.67+547.345+1163.45+523.666+1114.57+522.835ZM1087.21+572.085C1104.35+575.78+1103.73+596.564+1085.84+618.507C1067.94+640.451+1039.54+655.244+1022.4+651.55C1005.26+647.855+1005.88+627.071+1023.77+605.128C1041.67+583.184+1070.07+568.391+1087.21+572.085Z" vectornator:shadowOpacity="1"/>
<path stroke="#ffffff" vectornator:shadowColor="#7a7a7a" vectornator:shadowOffset="14" stroke-width="11" fill="#8700b3" stroke-linecap="round" vectornator:shadowAngle="0" stroke-linejoin="round" opacity="1" vectornator:shadowRadius="0" d="M1168.25+537.77C1159.28+530.064+1161.54+531.89+1157.63+526.732C1154.19+522.201+1158.45+508.16+1153.32+500.536C1147.82+492.353+1137.52+485.024+1124.12+482.173C1111.85+479.562+1098.48+477.26+1086.89+477.817C1080.3+478.133+1085.7+477.624+1076.1+478.165C1074.17+478.273+1073.18+478.396+1068.4+479.26C1064.73+479.925+1061.04+480.658+1057.35+481.452C1037.76+485.675+1029.63+491.956+1011.51+501.223C1007.31+503.37+998.583+508.956+990.493+512.703C985.227+515.142+982.792+515.664+978.596+515.291C975.041+514.975+973.306+515.163+969.986+512.29C966.667+509.416+965.959+509.083+964.156+504.533C962.352+499.982+962.289+499.47+961.456+494.439C960.623+489.408+960.572+488.618+960.824+484.408C961.077+480.198+960.788+479.896+962.167+475.167C963.826+469.48+963.905+469.875+966.827+466.558C969.469+463.559+971.286+462.415+978.93+457.717C987.679+452.341+997.457+448.69+1002.35+446.489C1046+426.852+1101.92+416.576+1147.28+430.841C1167.03+437.052+1189.27+447.614+1202.46+463.939C1214.6+478.971+1212.29+508.622+1213.48+527.177C1215.17+553.584+1223.96+602.626+1209.3+631.2M1215.68+611.149C1213.88+620.882+1214.43+618.026+1210.9+627.583C1207.37+637.14+1202.71+643.254+1202.71+643.254L1232+716.81L1159.43+691.396C1159.43+691.396+1131.94+708.425+1125.19+710.457" vectornator:shadowOpacity="1"/>
</g>
</svg>
